<svg width="778" height="778" viewBox="0 0 778 778" fill="none" xmlns="http://www.w3.org/2000/svg">
<g clip-path="url(#clip0_16_13)">
<rect width="778" height="778" rx="60" fill="#E17100"/>
<mask id="path-2-inside-1_16_13" fill="white">
<path d="M0 60C0 26.8629 26.8629 0 60 0H718C751.137 0 778 26.8629 778 60V140H0V60Z"/>
</mask>
<path d="M0 60C0 26.8629 26.8629 0 60 0H718C751.137 0 778 26.8629 778 60V140H0V60Z" fill="#E17100"/>
<path d="M0 0H778H0ZM778 156H0V124H778V156ZM0 140V0V140ZM778 0V140V0Z" fill="white" mask="url(#path-2-inside-1_16_13)"/>
<circle cx="88" cy="60" r="28" fill="white"/>
<circle cx="176" cy="60" r="28" fill="white"/>
<circle cx="264" cy="60" r="28" fill="white"/>
<path d="M503.483 248.999C498.07 248.728 493.875 246.969 490.899 243.722C488.192 240.204 486.839 236.144 486.839 231.543C487.11 226.401 488.734 222.071 491.71 218.553C494.687 215.035 498.747 213.411 503.889 213.682C532.576 215.576 560.992 216.388 589.137 216.117C617.283 215.847 644.887 214.494 671.95 212.058C674.927 211.787 677.633 212.464 680.069 214.088C682.775 215.712 684.94 218.012 686.564 220.989C688.188 223.695 689 226.807 689 230.326C689 233.573 687.917 236.956 685.752 240.474C673.574 259.148 660.719 278.768 647.188 299.336C633.656 319.904 619.583 341.149 604.969 363.07C590.355 384.72 575.471 406.777 560.315 429.239C545.16 451.701 529.869 474.028 514.443 496.22C522.021 495.949 529.463 495.814 536.77 495.814C544.077 495.543 551.384 495.408 558.691 495.408C565.998 495.137 573.305 495.002 580.613 495.002C594.956 495.002 609.299 495.273 623.643 495.814C637.986 496.085 652.194 496.49 666.267 497.032C671.68 497.032 675.739 498.791 678.445 502.309C681.152 505.827 682.505 510.293 682.505 515.705C682.234 520.577 680.746 524.636 678.039 527.884C675.333 530.86 671.274 532.349 665.861 532.349C650.976 531.808 636.227 531.266 621.613 530.725C607.27 530.455 592.656 530.319 577.771 530.319C561.262 530.319 544.619 530.455 527.84 530.725C511.061 531.266 494.281 532.078 477.502 533.161C472.902 533.161 468.978 531.808 465.73 529.101C462.482 526.395 460.453 523.012 459.641 518.953C459.1 514.623 460.047 510.699 462.482 507.18C476.555 486.883 488.734 469.292 499.018 454.407C509.572 439.252 518.909 425.585 527.028 413.407C535.417 401.229 543.401 389.591 550.978 378.496C558.556 367.4 566.404 355.763 574.523 343.584C582.642 331.406 591.708 317.739 601.722 302.584C611.735 287.429 623.372 269.702 636.633 249.405C621.207 250.217 605.916 250.758 590.761 251.029C575.876 251.299 561.127 251.299 546.513 251.029C532.17 250.488 517.826 249.811 503.483 248.999Z" fill="white" stroke="white" stroke-width="8"/>
<path d="M125.535 513.676C125.264 519.359 123.235 523.554 119.446 526.26C115.928 528.966 111.868 530.319 107.268 530.319C104.291 530.319 101.314 529.643 98.3367 528.29C95.6304 527.207 93.3301 525.448 91.4357 523.012C89.8119 520.306 89 516.923 89 512.864C90.3532 494.19 91.571 475.111 92.6535 455.626C94.0067 436.14 95.2245 416.519 96.307 396.763C97.6602 377.007 98.878 357.657 99.9605 338.713C101.314 320.31 102.532 302.043 103.614 283.911C104.697 265.778 105.779 247.917 106.862 230.326C107.132 225.725 108.756 221.666 111.733 218.147C114.71 214.629 118.905 212.87 124.317 212.87C130.542 212.87 135.278 214.9 138.525 218.959C141.773 222.748 145.562 230.461 149.892 242.098C156.116 258.607 163.017 275.25 170.595 292.029C178.443 308.809 186.427 325.046 194.546 340.743C202.935 356.439 210.784 370.783 218.091 383.773C225.398 396.493 231.622 407.183 236.764 415.843L367.885 228.296C370.05 225.048 372.485 222.748 375.192 221.395C377.898 219.771 380.739 218.959 383.716 218.959C388.317 218.959 392.512 220.583 396.301 223.831C400.09 227.078 402.119 231.408 402.39 236.821C403.472 268.755 404.149 301.231 404.42 334.248C404.69 367.265 404.555 399.605 404.014 431.269C403.472 462.933 402.39 492.702 400.766 520.577C400.495 526.26 398.466 530.455 394.677 533.161C390.888 535.867 386.693 537.221 382.093 537.221C377.492 537.221 373.162 535.867 369.102 533.161C365.314 530.455 363.554 526.26 363.825 520.577C365.178 497.844 366.125 473.622 366.667 447.913C367.479 422.203 368.02 395.816 368.29 368.753C368.561 341.42 368.696 314.086 368.696 286.752C348.94 316.251 329.32 344.802 309.834 372.407C290.62 399.74 271.405 426.939 252.19 454.002C250.296 457.249 247.86 459.55 244.883 460.903C241.906 462.256 238.929 462.933 235.952 462.933C232.975 462.933 230.134 462.256 227.427 460.903C224.721 459.55 222.285 457.249 220.12 454.002C204.424 430.728 189.81 406.641 176.278 381.743C162.747 356.845 149.892 330.459 137.713 302.584C136.902 320.716 136.09 338.307 135.278 355.357C134.466 372.136 133.519 388.915 132.436 405.694C131.624 422.473 130.542 439.794 129.189 457.655C128.106 475.246 126.888 493.92 125.535 513.676Z" fill="white" stroke="white" stroke-width="8"/>
<line x1="89" y1="610" x2="689" y2="610" stroke="white" stroke-width="16"/>
<line x1="89" y1="690" x2="489" y2="690" stroke="white" stroke-width="16"/>
</g>
<defs>
<clipPath id="clip0_16_13">
<rect width="778" height="778" fill="white"/>
</clipPath>
</defs>
</svg>
